<?xml version="1.0" encoding="utf-8"?>
<!-- Generator: Adobe Illustrator 18.0.0, SVG Export Plug-In . SVG Version: 6.00 Build 0)  -->
<!DOCTYPE svg PUBLIC "-//W3C//DTD SVG 1.1//EN" "http://www.w3.org/Graphics/SVG/1.1/DTD/svg11.dtd">
<svg version="1.1" id="Capa_1" xmlns="http://www.w3.org/2000/svg" xmlns:xlink="http://www.w3.org/1999/xlink" x="0px" y="0px"
	 viewBox="0 0 430.9 104.8" enable-background="new 0 0 430.9 104.8" xml:space="preserve">
<g>
	<path fill="#FFFFFF" d="M34.6,104.8c-12.6,0-22.5-4.6-22.5-10.5s9.9-10.5,22.5-10.5s22.5,4.6,22.5,10.5S47.2,104.8,34.6,104.8z
		 M34.6,85.7c-12.3,0-20.5,4.4-20.5,8.5s8.2,8.5,20.5,8.5s20.5-4.4,20.5-8.5S46.9,85.7,34.6,85.7z"/>
	<path fill-rule="evenodd" clip-rule="evenodd" fill="#FFFFFF" d="M16.3,71.4c7.3,2.2,16.8,4,27.6,3.6l0,0c3.4-0.1,5.6-0.3,6.7-0.5
		l1.9-3.2l0,0l1.5-2.4l0,0l2.9-4.9l0.2-0.3c-1.8,0.6-3.7,1.2-5.6,1.7c-0.7,0.2-1.4,0.3-2.1,0.5l0,0.1c-9.9,2.5-21.8,3.9-34.8,2.2
		l1.9,3.2L16.3,71.4L16.3,71.4z"/>
	<path fill-rule="evenodd" clip-rule="evenodd" fill="#FFFFFF" d="M20.5,78.2l6.9,11.6c1.5,2.5,4.1,4,7,4c2.9,0,5.5-1.5,7-4l5.2-8.7
		C36.6,82.2,28.3,80.7,20.5,78.2z"/>
	<path fill-rule="evenodd" clip-rule="evenodd" fill="#FFFFFF" d="M2.6,47.7L2.6,47.7L2.6,47.7L2.6,47.7L2.6,47.7
		c0.1,0.3,0.2,0.5,0.3,0.7l0,0l0,0.1l0,0l0,0.1l0,0.1l0,0l0,0l0,0l0,0l0,0l0,0l0,0l0,0l0,0l0,0.1l0,0l0,0.1l0,0l0,0.1l0,0l0,0.1l0,0
		l0,0.1l0,0l0,0.1l0,0l0,0.1l0,0l0,0.1l0,0l0,0l0,0.1l0,0l0,0l0,0l0,0l0,0l0,0l0,0l0,0l0,0.1l0,0.1l0,0l0,0.1l0,0l0,0.1
		c0,0.1,0.1,0.1,0.1,0.2L12,63.9h0l0,0c2.2,0.3,4.4,0.5,6.5,0.6l0.2,0l0,0c14.5,0.5,27.1-3.8,36.8-9c3.5-1.7,6.4-3.1,9.2-4.8
		l0.3-0.4c0-0.1,0.1-0.1,0.1-0.2c0.4-0.7,0.7-1.4,1-2.2l0,0l0,0l0,0l0,0l0,0l0,0l0,0l0,0l0-0.1l0-0.1l0,0l0,0l0,0l0,0l0,0l0,0l0-0.1
		l0,0l0,0l0,0l0,0l0,0c0-0.1,0.1-0.2,0.1-0.3l0,0c0.1-0.3,0.2-0.6,0.3-0.9l0,0l0-0.1c-2.5,1.4-5.5,3-8.1,4l-0.1,0.1
		C30.7,62.3,10.8,52,1.6,44.9C1.9,45.8,2.2,46.8,2.6,47.7z"/>
	<path fill-rule="evenodd" clip-rule="evenodd" fill="#FFFFFF" d="M5.5,36.4c0,0.2,0,0.3,0,0.5C5.5,36.8,5.5,36.6,5.5,36.4L5.5,36.4
		z M5.6,37c0,0.2,0,0.5,0.1,0.7c11.2,7.6,27.2,14,50,10.5c0.7-0.1,3.2-0.8,5.1-1.4l0,0c3.1-1.2,5.6-2.4,7-3.1c0.8-3,1.2-6,1.2-9.2
		c0-0.1,0-0.2,0-0.3c-1.7,0.1-3.6,0.1-5.5,0c-26.3-2-17.6-19.5-44.5-14c-4.3,0.9-7.8,1.5-10.7,2.1c-2.6,0.5-4.7,0.8-6.3,1
		C0.7,26.4,0.1,29.9,0,33.5c1.9,1.6,3.8,3.1,5.6,4.4c0-0.1,0-0.1,0-0.2C5.6,37.4,5.6,37.2,5.6,37z"/>
	<path fill-rule="evenodd" clip-rule="evenodd" fill="#FFFFFF" d="M33.9,0c-9,0.1-17.5,3.8-23.9,10.2c-2.7,2.7-4.9,5.8-6.5,9.1
		l7.1-1.3C15.8,10.6,24.4,5.6,34,5.5c7.8-0.1,15.2,2.9,20.8,8.3c4.7,4.7,7.6,10.6,8.4,17.1c1.2,0.2,3.4,0.4,5.5,0.4
		C68,23.2,64.5,15.7,58.6,9.9C52,3.4,43.2-0.1,33.9,0z"/>
</g>
<path fill-rule="evenodd" clip-rule="evenodd" fill="#FFFFFF" d="M91.8,100.2l12.2-0.1L104,89.6l2.6,0l7,10.4l14-0.1l-8.6-12.4
	c4.4-2.2,7.2-5.9,7.1-11.2l0-0.1c0-3.8-1.2-6.5-3.4-8.7c-2.6-2.5-6.7-4.1-13.2-4.1l-17.9,0.1L91.8,100.2L91.8,100.2z M104,80.9
	l0-7.2l5.3,0c2.8,0,4.7,1.1,4.7,3.5l0,0.1c0,2.2-1.8,3.6-4.7,3.6L104,80.9z"/>
<polygon fill-rule="evenodd" clip-rule="evenodd" fill="#FFFFFF" points="129.3,100.1 141.6,100.1 141.3,63.5 129.1,63.5 "/>
<path fill-rule="evenodd" clip-rule="evenodd" fill="#FFFFFF" d="M164.9,100.8c11.3-0.1,20-8.6,19.9-19.2l0-0.1
	c-0.1-10.6-8.7-18.9-20-18.9c-11.3,0.1-20,8.6-19.9,19.2l0,0.1C145,92.5,153.6,100.9,164.9,100.8L164.9,100.8z M165,90
	c-4.7,0-7.7-3.9-7.7-8.2l0-0.1c0-4.3,2.9-8.2,7.5-8.2c4.7,0,7.7,3.9,7.7,8.2l0,0.1C172.5,86.1,169.6,89.9,165,90z"/>
<path fill-rule="evenodd" clip-rule="evenodd" fill="#FFFFFF" d="M219.7,100.7c9.1-0.1,14.2-4.5,17.2-10l-10.1-5.6
	c-1.5,2.7-3.4,4.6-6.9,4.6c-4,0-6.9-3.3-6.9-8.1l0-0.1c0-4.4,2.7-8,6.8-8c3.3,0,5.3,1.8,6.7,4.4l10.1-6c-3.1-5.6-8.6-9.5-16.6-9.4
	c-10.9,0.1-19.4,8.3-19.3,19.2l0,0.1C200.7,93.2,209.6,100.8,219.7,100.7z"/>
<path fill-rule="evenodd" clip-rule="evenodd" fill="#FFFFFF" d="M257.1,100.7c10.9-0.1,18.2-5,18.1-17.5L275,63.2l-12.4,0.1
	l0.1,20.3c0,4.4-2.3,6.2-5.6,6.3c-3.3,0-5.7-1.9-5.7-6.4l-0.1-20l-12.4,0.1l0.1,20.2C239.1,95.7,246.1,100.7,257.1,100.7z"/>
<path fill-rule="evenodd" clip-rule="evenodd" fill="#FFFFFF" d="M274.9,100l13.1-0.1l1.9-4.9l12.8-0.1l2,4.9l13.3-0.1L302.2,63
	l-12.1,0.1L274.9,100L274.9,100z M292.9,86.3l3.3-8.9l3.4,8.9L292.9,86.3z"/>
<path fill-rule="evenodd" clip-rule="evenodd" fill="#FFFFFF" d="M319.4,100l12.2-0.1l-0.1-10.5l2.6,0l7,10.4l14-0.1l-8.6-12.4
	c4.4-2.2,7.2-5.9,7.1-11.2l0-0.1c0-3.8-1.2-6.5-3.4-8.7c-2.6-2.5-6.7-4.1-13.2-4.1l-17.9,0.1L319.4,100L319.4,100z M331.5,80.7
	l0-7.2l5.3,0c2.8,0,4.7,1.1,4.7,3.5l0,0.1c0,2.2-1.8,3.6-4.7,3.6L331.5,80.7z"/>
<polygon fill-rule="evenodd" clip-rule="evenodd" fill="#FFFFFF" points="366.1,99.9 378.4,99.8 378.2,73.5 389,73.5 388.9,63.1 
	355.1,63.3 355.2,73.7 366,73.6 "/>
<path fill-rule="evenodd" clip-rule="evenodd" fill="#FFFFFF" d="M409.4,100.6c11.3-0.1,20-8.6,19.9-19.2l0-0.1
	c-0.1-10.6-8.7-18.9-20-18.9c-11.3,0.1-20,8.6-19.9,19.2l0,0.1C389.5,92.3,398.1,100.6,409.4,100.6L409.4,100.6z M409.5,89.7
	c-4.7,0-7.7-3.9-7.7-8.2l0-0.1c0-4.3,2.9-8.2,7.5-8.2c4.7,0,7.7,3.9,7.7,8.2l0,0.1C417,85.8,414.1,89.7,409.5,89.7z"/>
<path fill-rule="evenodd" clip-rule="evenodd" fill="#FFFFFF" d="M99,21.1c-1.3,6.1-4,14.9-5.2,19.4c-3.5,13.3,0.2,16.1,6.6,12.3
	c5.5-3.2,9.5-7,12.6-12c1.9-0.1,4-1.2,6.4-3.6c1.2-1.1,1.8-2,2-2.4c0.4-1.1-0.2-0.8-2,0.9c-2.4,2.3-4.3,3.6-5.8,3.9
	c1.8-3.1,3.2-6.6,4.4-10.7c4.3-15.1,2.6-23-4.2-20c-6.4,2.8-8.9,20-6.9,26.2c0.5,1.7,1.2,3,2.1,4c-2.4,6-5.3,10.6-8.6,12.4
	c-2.6,1.5-3.3-0.6-1.7-6.9c1.7-6.2,3.8-14.6,7-26.4c2-7.5,0.8-10-3.7-9.3C101.7,9,101.5,9,101.5,9S101.1,11.9,99,21.1L99,21.1z
	 M108.2,34.8c-1.8-5.2,1-22.5,5.4-24.3c3.1-1.2,3.3,5.4-2.4,22.7c-0.5,1.6-1.1,3.2-1.7,4.6C109,37,108.5,36,108.2,34.8z"/>
<path fill-rule="evenodd" clip-rule="evenodd" fill="#FFFFFF" d="M118.6,40.5c-3.3,13.4,3.9,15.1,7.7,8.8c2-3.2,2.7-4.7,4.5-9.1
	c0.6-1.4,0.9-2.5,0.9-2.9c0-1.2-0.5-0.8-1.5,1.5c-2,4.9-2.9,6.9-4.5,9.5c-1.4,2.2-3.6,2.1-2.2-3.7c1.9-7.6,4.5-17.2,4.7-17.7
	c0,0-0.4-0.3-1-0.7c-2-1.3-4.6-1.5-6.6,6.1C119.9,35.3,119,38.8,118.6,40.5L118.6,40.5z M131.1,21.1c1.1-1.7,0.1-3.9-2.1-4.6
	c-2.3-0.8-5-0.1-6,1.7c-1,1.7-0.1,3.8,2.2,4.6C127.4,23.5,130.1,22.8,131.1,21.1z"/>
<path fill-rule="evenodd" clip-rule="evenodd" fill="#FFFFFF" d="M152,28.7c1.9-7.2,0-10.7-5.1-9.4c-5.1,1.2-8,10.4-5.2,15.6
	c0.5,1,1.1,1.8,1.9,2.4c-2.5,6.7-4.5,10.1-6.7,11.7c-2.1,1.5-3,1-1.6-4.7c2.9-11.8,5.8-22.3,6.2-23.9c0,0-0.3-0.2-0.8-0.5
	c-2.5-1.4-4.8-1.9-6.9,6.5c-1.2,4.8-2.6,10.8-3.4,13.8c-3.3,13.4,0.7,14.5,6.6,10c3.9-2.9,7.6-6.5,10.5-11.1
	c1.9,0.2,4.1-0.5,5.9-2.2c1.2-1.1,1.8-2.1,2-2.4c0.4-1.1-0.2-0.8-2,0.9c-1.9,1.8-3.7,2.6-5.3,2.6C149.7,35.3,151,32.2,152,28.7
	L152,28.7z M142.8,34.4c-2.4-4.4,0.6-13,3.6-13.6c1.7-0.4,1.7,3-1.3,12.2l-1.1,3.2C143.6,35.6,143.2,35.1,142.8,34.4z"/>
<path fill-rule="evenodd" clip-rule="evenodd" fill="#FFFFFF" d="M152.2,40.3c-3.3,13.4,3.9,15.1,7.7,8.8c2-3.2,2.7-4.7,4.5-9.1
	c0.6-1.4,0.9-2.5,0.9-2.9c0-1.2-0.5-0.8-1.5,1.5c-2,4.9-2.9,6.9-4.5,9.5c-1.4,2.2-3.6,2.1-2.2-3.7c1.9-7.6,4.5-17.2,4.7-17.7
	c0,0-0.4-0.3-1-0.7c-2-1.3-4.6-1.5-6.6,6.1C153.5,35,152.7,38.5,152.2,40.3L152.2,40.3z M155.6,23.3c0,0,4.6-1.6,7-2.5
	c1.9-0.7,2.8-2.4,1.9-4.1c-0.8-1.5-2.9-1.6-4.8,0.7l-4.4,5.2L155.6,23.3z"/>
<path fill-rule="evenodd" clip-rule="evenodd" fill="#FFFFFF" d="M172.7,40.1c-3.3,13.4,3.9,15.1,7.7,8.8c2-3.2,2.7-4.7,4.5-9.1
	c0.6-1.4,0.9-2.5,0.9-2.9c0-1.2-0.5-0.8-1.5,1.5c-2,4.9-2.9,6.9-4.5,9.5c-1.4,2.2-3.6,2.1-2.2-3.7c1.5-5.9,6.4-25.3,6.8-26.7
	c1.9-7.3,0.7-10-3.7-9.3c-0.3,0.1-0.5,0.1-0.5,0.1s-0.3,3-2.5,12.1C176.4,25.9,174.2,34.1,172.7,40.1z"/>
<path fill-rule="evenodd" clip-rule="evenodd" fill="#FFFFFF" d="M184.4,35.2c-3.9,15.2,3.5,20.8,7.9,15.4c0.8-1,1.5-2.3,2.2-4.1
	c0.2,7.2,5.4,7.4,8.6,2.3c2-3.2,2.7-4.7,4.5-9.1c0.6-1.4,0.9-2.5,0.9-2.9c0-1.2-0.5-0.8-1.5,1.5c-2,4.9-2.9,6.9-4.5,9.5
	c-1.3,2.2-3.6,2.1-2.2-3.7c2.9-11.9,5.8-22.3,6.2-23.9c0,0-0.3-0.2-0.8-0.5c-1.9-1-3.7-1.5-5.3,1.7C197,18.2,188.2,20.5,184.4,35.2
	L184.4,35.2z M195.4,39.4c-1.2,5.1-2.5,8.6-3.7,10.1c-2.1,2.7-4.7-2.4-1.6-14c3.3-12.1,7.3-16.4,9.7-12.8c-0.4,1-0.8,2.1-1.1,3.5
	l-2.9,12C195.6,38.6,195.5,39,195.4,39.4z"/>
<path fill-rule="evenodd" clip-rule="evenodd" fill="#FFFFFF" d="M236.5,21.8c-2.5-4.4-15.8-2.6-19.9,13.1
	c-3.9,15.1,3.5,20.4,11.2,16.9c4.6-2.1,7-5.8,9.9-12.4c0.6-1.4,0.9-2.5,0.9-2.9c0-1.2-0.4-0.8-1.5,1.6c-3.3,7.5-6,10.6-8.9,12
	c-3.6,1.7-7.3-1.4-7-8.7C229.9,36,239,26.3,236.5,21.8L236.5,21.8z M222.4,35.2c3.4-12.8,7.7-16.2,9.2-12.9
	c1.3,2.9-2,12.1-10.1,17.4C221.6,38.3,221.9,36.9,222.4,35.2z"/>
<path fill-rule="evenodd" clip-rule="evenodd" fill="#FFFFFF" d="M262.5,37.9c-2,4.9-2.9,6.9-4.5,9.5c-1.7,2.7-2.6,3-3.4-0.2
	c-0.7-2.6-1.4-5.9-2.2-9.3c4.6-3.7,7.9-9,9.2-13.9c1.9-7-4.8-5.8-4.8-5.7c-0.4,6.8-2,12.7-5,16.7c-0.7-3.2-1.3-6.3-1.9-8.9
	c-2.4-10.6-8.8-10.9-11.2-4.6c-2.5,6.6-1.2,18,1.7,22.6l0.1,0.3c-0.9,0.9-1.6,1.9-2.2,3.1c-1.3,2.8-0.4,5.5,2.7,5.5l0.6,0
	c0-0.3,0.1-0.9,0.3-1.8c0.6-4.1,2.8-7,5.8-9.5l1.7,6.7c1.5,5.9,5.6,6.3,9.3,0.2c2-3.2,2.7-4.7,4.5-9.1c0.6-1.4,0.9-2.5,0.9-2.9
	C264,35.2,263.5,35.6,262.5,37.9L262.5,37.9z M241.3,43.4c-3.5-6.3-3.8-16.3-2-21c1-2.5,3.5-3,5,4.8c0.6,3,1.7,7.6,2.8,12
	C245,40.6,243,41.9,241.3,43.4z"/>
<path fill-rule="evenodd" clip-rule="evenodd" fill="#FFFFFF" d="M261.8,62l2.8-11.3c3.4,3,11.9,0.6,15.7-13.9
	c3.9-15.2-3-20.8-7.3-15.4c-0.5,0.6-1.1,1.5-1.7,2.4c0.8-5.1-1.2-6.6-4.3-6.2c-0.3,0.1-0.4,0.1-0.4,0.1s-0.2,3-2.5,12.1
	c-0.8,3-3.5,14-5.3,21.5c-2.2,9.1-0.7,10.2,2.5,10.5C261.5,62,261.8,62,261.8,62L261.8,62z M269.3,32.6l0.2-0.9
	c0.1-0.2,0.1-0.4,0.1-0.6c1.2-4.3,2.9-7.3,3.9-8.6c2.1-2.7,4.2,2.4,1.1,14c-3.3,12-7.3,16.3-9.6,12.8c1.5-5.9,3.1-12,3.8-15.2
	L269.3,32.6z"/>
<path fill-rule="evenodd" clip-rule="evenodd" fill="#FFFFFF" d="M302.6,21.3c-2.5-4.4-15.8-2.6-19.9,13.1
	c-3.9,15.1,3.5,20.4,11.2,16.9c4.6-2.1,7-5.8,9.9-12.4c0.6-1.4,0.9-2.5,0.9-2.9c0-1.2-0.4-0.8-1.5,1.6c-3.3,7.5-6,10.6-8.9,12
	c-3.6,1.7-7.3-1.4-7-8.7C295.9,35.5,305,25.8,302.6,21.3L302.6,21.3z M288.4,34.7c3.4-12.8,7.7-16.2,9.2-12.9
	c1.3,2.9-2,12.1-10.1,17.4C287.6,37.8,287.9,36.4,288.4,34.7z"/>
<path fill-rule="evenodd" clip-rule="evenodd" fill="#FFFFFF" d="M310.7,23.7c1.6,0.6,1.5,1.9,1,3.9l-2.5,11.5
	c-3.3,13.4,3.9,15.1,7.7,8.8c2-3.2,2.7-4.7,4.5-9.1c0.6-1.4,0.9-2.5,0.9-2.9c0-1.2-0.5-0.8-1.5,1.6c-2,4.9-2.9,6.9-4.5,9.5
	c-1.4,2.2-3.6,2.1-2.2-3.7l4.8-19.9c0.3-1.2-0.1-1.4-9.5-4.1c0.4-2.1,0.9-3.4,0.9-3.4s-3.7-0.5-5.5,2.5c-1,1.6-0.7,2.7,2.3,4
	c-1.1,5.8-3.1,12.9-4.8,17.2c-0.9,2.4-0.8,3-0.1,2.2c0.3-0.3,0.8-1.3,1.4-2.8c1.5-3.7,3.7-10.1,5-15.9
	C309.4,23.3,310.1,23.5,310.7,23.7z"/>
<path fill-rule="evenodd" clip-rule="evenodd" fill="#FFFFFF" d="M320.7,39c-3.3,13.4,3.9,15.1,7.7,8.8c2-3.2,2.7-4.7,4.5-9.1
	c0.6-1.4,0.9-2.5,0.9-2.9c0-1.2-0.5-0.8-1.5,1.5c-2,4.9-2.9,6.9-4.5,9.5c-1.4,2.2-3.6,2.1-2.2-3.7c1.9-7.6,4.5-17.2,4.7-17.7
	c0,0-0.4-0.3-1-0.7c-2-1.3-4.6-1.5-6.6,6.1C322,33.7,321.1,37.2,320.7,39L320.7,39z M333.2,19.5c1.1-1.7,0.1-3.9-2.1-4.6
	c-2.3-0.8-5-0.1-6,1.7c-1,1.7-0.1,3.8,2.2,4.6C329.4,21.9,332.1,21.2,333.2,19.5z"/>
<path fill-rule="evenodd" clip-rule="evenodd" fill="#FFFFFF" d="M352.3,20.9c-2.5-4.4-15.8-2.6-19.9,13.1
	c-3.9,15.1,3.5,20.4,11.2,16.9c4.6-2.1,7-5.8,9.9-12.4c0.6-1.4,0.9-2.5,0.9-2.9c0-1.2-0.4-0.8-1.5,1.6c-3.3,7.5-6,10.6-8.9,12
	c-3.6,1.7-7.3-1.4-7-8.7C345.6,35.1,354.7,25.4,352.3,20.9L352.3,20.9z M338.1,34.3c3.4-12.8,7.7-16.2,9.2-12.9
	c1.3,2.9-2,12.1-10.1,17.4C337.3,37.4,337.7,36,338.1,34.3z"/>
<path fill-rule="evenodd" clip-rule="evenodd" fill="#FFFFFF" d="M355.4,52c0.3-1.1,2.2-8.9,3.6-14.7l0.4-1.4l0.4-1.6
	c1.6-5.6,4.1-10,6.6-12.4c2.4-2.3,3.2,0.4,0.1,11.7l-1.5,5.9c-3.2,13.4,3.8,14.4,7.7,8.1c2-3.2,2.7-4.7,4.5-9.1
	c0.6-1.4,0.9-2.5,0.9-2.9c0-1.2-0.5-0.8-1.5,1.6c-2,4.9-2.9,6.9-4.5,9.5c-1.4,2.2-3.5,2.1-2.1-3.7c0.8-3.4,1-4.2,2.3-8.9
	c4.1-15.4-1.2-17.7-6.2-13.2c-1.5,1.4-3,3.5-4.3,5.8c0-0.1,0.1-0.1,0.1-0.2c2-7.7,0.1-9.8-3.6-9.2c-0.3,0.1-0.4,0.1-0.4,0.1
	s-0.3,3-2.5,12.1c-0.8,3-1.1,4.6-2.9,12.2c-2.2,9-0.7,10.2,2.5,10.5C355.1,52,355.4,52,355.4,52z"/>
<path fill-rule="evenodd" clip-rule="evenodd" fill="#FFFFFF" d="M394.7,20.6c-2.5-4.4-13.9-2.6-18,13.1c-4,15.2,2.5,19.4,9,16.8
	c4.6-1.9,7.3-5.7,10.2-12.3c0.6-1.4,0.9-2.5,0.9-2.9c0-1.2-0.4-0.8-1.5,1.5c-3.3,7.5-6.2,10.7-9.1,11.9c-3.1,1.3-6.9-3-3.8-14.8
	c3.4-12.8,9.3-16,11.2-12.9c1.5,2.6-0.6,5-3.7,4.5c-2.1-0.3-3.8,2.4-2.3,4.4c1.4,1.7,4.2,1.2,5.9-0.9
	C395.7,26.6,396.2,23.2,394.7,20.6z"/>
<path fill-rule="evenodd" clip-rule="evenodd" fill="#FFFFFF" d="M395.2,38.4c-3.3,13.4,3.9,15.1,7.7,8.8c2-3.2,2.7-4.7,4.5-9.1
	c0.6-1.4,0.9-2.5,0.9-2.9c0-1.2-0.5-0.8-1.5,1.5c-2,4.9-2.9,6.9-4.5,9.5c-1.4,2.2-3.6,2.1-2.2-3.7c1.9-7.6,4.5-17.2,4.7-17.7
	c0,0-0.4-0.3-1-0.7c-2-1.3-4.6-1.5-6.6,6.1C396.5,33.2,395.6,36.6,395.2,38.4L395.2,38.4z M407.7,18.9c1.1-1.7,0.1-3.9-2.1-4.6
	c-2.3-0.8-5-0.1-6,1.7c-1,1.7-0.1,3.8,2.2,4.6C403.9,21.3,406.6,20.7,407.7,18.9z"/>
<path fill-rule="evenodd" clip-rule="evenodd" fill="#FFFFFF" d="M406.9,33.5c-3.9,15.2,3.5,20.8,7.9,15.4c0.8-1,1.5-2.3,2.2-4.1
	c0.2,7.2,5.4,7.4,8.6,2.3c2-3.2,2.7-4.7,4.5-9.1c0.6-1.4,0.9-2.5,0.9-2.9c0-1.2-0.5-0.8-1.5,1.5c-2,4.9-2.9,6.9-4.5,9.5
	c-1.3,2.2-3.6,2.1-2.2-3.7c2.9-11.9,5.8-22.3,6.2-23.9c0,0-0.3-0.2-0.8-0.5c-1.9-1-3.7-1.5-5.3,1.7
	C419.4,16.4,410.7,18.7,406.9,33.5L406.9,33.5z M417.9,37.7c-1.2,5.1-2.5,8.6-3.7,10.1c-2.1,2.7-4.7-2.4-1.6-14
	c3.3-12.1,7.3-16.4,9.7-12.8c-0.4,1-0.8,2.1-1.1,3.5l-2.9,12C418.1,36.8,418,37.2,417.9,37.7z"/>
<path fill-rule="evenodd" clip-rule="evenodd" fill="#FFFFFF" d="M99,21.1c-1.3,6.1-4,14.9-5.2,19.4c-3.5,13.3,0.2,16.1,6.6,12.3
	c5.5-3.2,9.5-7,12.6-12c1.9-0.1,4-1.2,6.4-3.6c1.2-1.1,1.8-2,2-2.4c0.4-1.1-0.2-0.8-2,0.9c-2.4,2.3-4.3,3.6-5.8,3.9
	c1.8-3.1,3.2-6.6,4.4-10.7c4.3-15.1,2.6-23-4.2-20c-6.4,2.8-8.9,20-6.9,26.2c0.5,1.7,1.2,3,2.1,4c-2.4,6-5.3,10.6-8.6,12.4
	c-2.6,1.5-3.3-0.6-1.7-6.9c1.7-6.2,3.8-14.6,7-26.4c2-7.5,0.8-10-3.7-9.3C101.7,9,101.5,9,101.5,9S101.1,11.9,99,21.1L99,21.1z
	 M108.2,34.8c-1.8-5.2,1-22.5,5.4-24.3c3.1-1.2,3.3,5.4-2.4,22.7c-0.5,1.6-1.1,3.2-1.7,4.6C109,37,108.5,36,108.2,34.8z"/>
<path fill-rule="evenodd" clip-rule="evenodd" fill="#FFFFFF" d="M118.6,40.5c-3.3,13.4,3.9,15.1,7.7,8.8c2-3.2,2.7-4.7,4.5-9.1
	c0.6-1.4,0.9-2.5,0.9-2.9c0-1.2-0.5-0.8-1.5,1.5c-2,4.9-2.9,6.9-4.5,9.5c-1.4,2.2-3.6,2.1-2.2-3.7c1.9-7.6,4.5-17.2,4.7-17.7
	c0,0-0.4-0.3-1-0.7c-2-1.3-4.6-1.5-6.6,6.1C119.9,35.3,119,38.8,118.6,40.5L118.6,40.5z M131.1,21.1c1.1-1.7,0.1-3.9-2.1-4.6
	c-2.3-0.8-5-0.1-6,1.7c-1,1.7-0.1,3.8,2.2,4.6C127.4,23.5,130.1,22.8,131.1,21.1z"/>
<path fill-rule="evenodd" clip-rule="evenodd" fill="#FFFFFF" d="M152,28.7c1.9-7.2,0-10.7-5.1-9.4c-5.1,1.2-8,10.4-5.2,15.6
	c0.5,1,1.1,1.8,1.9,2.4c-2.5,6.7-4.5,10.1-6.7,11.7c-2.1,1.5-3,1-1.6-4.7c2.9-11.8,5.8-22.3,6.2-23.9c0,0-0.3-0.2-0.8-0.5
	c-2.5-1.4-4.8-1.9-6.9,6.5c-1.2,4.8-2.6,10.8-3.4,13.8c-3.3,13.4,0.7,14.5,6.6,10c3.9-2.9,7.6-6.5,10.5-11.1
	c1.9,0.2,4.1-0.5,5.9-2.2c1.2-1.1,1.8-2.1,2-2.4c0.4-1.1-0.2-0.8-2,0.9c-1.9,1.8-3.7,2.6-5.3,2.6C149.7,35.3,151,32.2,152,28.7
	L152,28.7z M142.8,34.4c-2.4-4.4,0.6-13,3.6-13.6c1.7-0.4,1.7,3-1.3,12.2l-1.1,3.2C143.6,35.6,143.2,35.1,142.8,34.4z"/>
<path fill-rule="evenodd" clip-rule="evenodd" fill="#FFFFFF" d="M152.2,40.3c-3.3,13.4,3.9,15.1,7.7,8.8c2-3.2,2.7-4.7,4.5-9.1
	c0.6-1.4,0.9-2.5,0.9-2.9c0-1.2-0.5-0.8-1.5,1.5c-2,4.9-2.9,6.9-4.5,9.5c-1.4,2.2-3.6,2.1-2.2-3.7c1.9-7.6,4.5-17.2,4.7-17.7
	c0,0-0.4-0.3-1-0.7c-2-1.3-4.6-1.5-6.6,6.1C153.5,35,152.7,38.5,152.2,40.3L152.2,40.3z M155.6,23.3c0,0,4.6-1.6,7-2.5
	c1.9-0.7,2.8-2.4,1.9-4.1c-0.8-1.5-2.9-1.6-4.8,0.7l-4.4,5.2L155.6,23.3z"/>
<path fill-rule="evenodd" clip-rule="evenodd" fill="#FFFFFF" d="M172.7,40.1c-3.3,13.4,3.9,15.1,7.7,8.8c2-3.2,2.7-4.7,4.5-9.1
	c0.6-1.4,0.9-2.5,0.9-2.9c0-1.2-0.5-0.8-1.5,1.5c-2,4.9-2.9,6.9-4.5,9.5c-1.4,2.2-3.6,2.1-2.2-3.7c1.5-5.9,6.4-25.3,6.8-26.7
	c1.9-7.3,0.7-10-3.7-9.3c-0.3,0.1-0.5,0.1-0.5,0.1s-0.3,3-2.5,12.1C176.4,25.9,174.2,34.1,172.7,40.1z"/>
<path fill-rule="evenodd" clip-rule="evenodd" fill="#FFFFFF" d="M184.4,35.2c-3.9,15.2,3.5,20.8,7.9,15.4c0.8-1,1.5-2.3,2.2-4.1
	c0.2,7.2,5.4,7.4,8.6,2.3c2-3.2,2.7-4.7,4.5-9.1c0.6-1.4,0.9-2.5,0.9-2.9c0-1.2-0.5-0.8-1.5,1.5c-2,4.9-2.9,6.9-4.5,9.5
	c-1.3,2.2-3.6,2.1-2.2-3.7c2.9-11.9,5.8-22.3,6.2-23.9c0,0-0.3-0.2-0.8-0.5c-1.9-1-3.7-1.5-5.3,1.7C197,18.2,188.2,20.5,184.4,35.2
	L184.4,35.2z M195.4,39.4c-1.2,5.1-2.5,8.6-3.7,10.1c-2.1,2.7-4.7-2.4-1.6-14c3.3-12.1,7.3-16.4,9.7-12.8c-0.4,1-0.8,2.1-1.1,3.5
	l-2.9,12C195.6,38.6,195.5,39,195.4,39.4z"/>
<path fill-rule="evenodd" clip-rule="evenodd" fill="#FFFFFF" d="M236.5,21.8c-2.5-4.4-15.8-2.6-19.9,13.1
	c-3.9,15.1,3.5,20.4,11.2,16.9c4.6-2.1,7-5.8,9.9-12.4c0.6-1.4,0.9-2.5,0.9-2.9c0-1.2-0.4-0.8-1.5,1.6c-3.3,7.5-6,10.6-8.9,12
	c-3.6,1.7-7.3-1.4-7-8.7C229.9,36,239,26.3,236.5,21.8L236.5,21.8z M222.4,35.2c3.4-12.8,7.7-16.2,9.2-12.9
	c1.3,2.9-2,12.1-10.1,17.4C221.6,38.3,221.9,36.9,222.4,35.2z"/>
<path fill-rule="evenodd" clip-rule="evenodd" fill="#FFFFFF" d="M262.5,37.9c-2,4.9-2.9,6.9-4.5,9.5c-1.7,2.7-2.6,3-3.4-0.2
	c-0.7-2.6-1.4-5.9-2.2-9.3c4.6-3.7,7.9-9,9.2-13.9c1.9-7-4.8-5.8-4.8-5.7c-0.4,6.8-2,12.7-5,16.7c-0.7-3.2-1.3-6.3-1.9-8.9
	c-2.4-10.6-8.8-10.9-11.2-4.6c-2.5,6.6-1.2,18,1.7,22.6l0.1,0.3c-0.9,0.9-1.6,1.9-2.2,3.1c-1.3,2.8-0.4,5.5,2.7,5.5l0.6,0
	c0-0.3,0.1-0.9,0.3-1.8c0.6-4.1,2.8-7,5.8-9.5l1.7,6.7c1.5,5.9,5.6,6.3,9.3,0.2c2-3.2,2.7-4.7,4.5-9.1c0.6-1.4,0.9-2.5,0.9-2.9
	C264,35.2,263.5,35.6,262.5,37.9L262.5,37.9z M241.3,43.4c-3.5-6.3-3.8-16.3-2-21c1-2.5,3.5-3,5,4.8c0.6,3,1.7,7.6,2.8,12
	C245,40.6,243,41.9,241.3,43.4z"/>
<path fill-rule="evenodd" clip-rule="evenodd" fill="#FFFFFF" d="M261.8,62l2.8-11.3c3.4,3,11.9,0.6,15.7-13.9
	c3.9-15.2-3-20.8-7.3-15.4c-0.5,0.6-1.1,1.5-1.7,2.4c0.8-5.1-1.2-6.6-4.3-6.2c-0.3,0.1-0.4,0.1-0.4,0.1s-0.2,3-2.5,12.1
	c-0.8,3-3.5,14-5.3,21.5c-2.2,9.1-0.7,10.2,2.5,10.5C261.5,62,261.8,62,261.8,62L261.8,62z M269.3,32.6l0.2-0.9
	c0.1-0.2,0.1-0.4,0.1-0.6c1.2-4.3,2.9-7.3,3.9-8.6c2.1-2.7,4.2,2.4,1.1,14c-3.3,12-7.3,16.3-9.6,12.8c1.5-5.9,3.1-12,3.8-15.2
	L269.3,32.6z"/>
<path fill-rule="evenodd" clip-rule="evenodd" fill="#FFFFFF" d="M302.6,21.3c-2.5-4.4-15.8-2.6-19.9,13.1
	c-3.9,15.1,3.5,20.4,11.2,16.9c4.6-2.1,7-5.8,9.9-12.4c0.6-1.4,0.9-2.5,0.9-2.9c0-1.2-0.4-0.8-1.5,1.6c-3.3,7.5-6,10.6-8.9,12
	c-3.6,1.7-7.3-1.4-7-8.7C295.9,35.5,305,25.8,302.6,21.3L302.6,21.3z M288.4,34.7c3.4-12.8,7.7-16.2,9.2-12.9
	c1.3,2.9-2,12.1-10.1,17.4C287.6,37.8,287.9,36.4,288.4,34.7z"/>
<path fill-rule="evenodd" clip-rule="evenodd" fill="#FFFFFF" d="M310.7,23.7c1.6,0.6,1.5,1.9,1,3.9l-2.5,11.5
	c-3.3,13.4,3.9,15.1,7.7,8.8c2-3.2,2.7-4.7,4.5-9.1c0.6-1.4,0.9-2.5,0.9-2.9c0-1.2-0.5-0.8-1.5,1.6c-2,4.9-2.9,6.9-4.5,9.5
	c-1.4,2.2-3.6,2.1-2.2-3.7l4.8-19.9c0.3-1.2-0.1-1.4-9.5-4.1c0.4-2.1,0.9-3.4,0.9-3.4s-3.7-0.5-5.5,2.5c-1,1.6-0.7,2.7,2.3,4
	c-1.1,5.8-3.1,12.9-4.8,17.2c-0.9,2.4-0.8,3-0.1,2.2c0.3-0.3,0.8-1.3,1.4-2.8c1.5-3.7,3.7-10.1,5-15.9
	C309.4,23.3,310.1,23.5,310.7,23.7z"/>
<path fill-rule="evenodd" clip-rule="evenodd" fill="#FFFFFF" d="M320.7,39c-3.3,13.4,3.9,15.1,7.7,8.8c2-3.2,2.7-4.7,4.5-9.1
	c0.6-1.4,0.9-2.5,0.9-2.9c0-1.2-0.5-0.8-1.5,1.5c-2,4.9-2.9,6.9-4.5,9.5c-1.4,2.2-3.6,2.1-2.2-3.7c1.9-7.6,4.5-17.2,4.7-17.7
	c0,0-0.4-0.3-1-0.7c-2-1.3-4.6-1.5-6.6,6.1C322,33.7,321.1,37.2,320.7,39L320.7,39z M333.2,19.5c1.1-1.7,0.1-3.9-2.1-4.6
	c-2.3-0.8-5-0.1-6,1.7c-1,1.7-0.1,3.8,2.2,4.6C329.4,21.9,332.1,21.2,333.2,19.5z"/>
<path fill-rule="evenodd" clip-rule="evenodd" fill="#FFFFFF" d="M352.3,20.9c-2.5-4.4-15.8-2.6-19.9,13.1
	c-3.9,15.1,3.5,20.4,11.2,16.9c4.6-2.1,7-5.8,9.9-12.4c0.6-1.4,0.9-2.5,0.9-2.9c0-1.2-0.4-0.8-1.5,1.6c-3.3,7.5-6,10.6-8.9,12
	c-3.6,1.7-7.3-1.4-7-8.7C345.6,35.1,354.7,25.4,352.3,20.9L352.3,20.9z M338.1,34.3c3.4-12.8,7.7-16.2,9.2-12.9
	c1.3,2.9-2,12.1-10.1,17.4C337.3,37.4,337.7,36,338.1,34.3z"/>
<path fill-rule="evenodd" clip-rule="evenodd" fill="#FFFFFF" d="M355.4,52c0.3-1.1,2.2-8.9,3.6-14.7l0.4-1.4l0.4-1.6
	c1.6-5.6,4.1-10,6.6-12.4c2.4-2.3,3.2,0.4,0.1,11.7l-1.5,5.9c-3.2,13.4,3.8,14.4,7.7,8.1c2-3.2,2.7-4.7,4.5-9.1
	c0.6-1.4,0.9-2.5,0.9-2.9c0-1.2-0.5-0.8-1.5,1.6c-2,4.9-2.9,6.9-4.5,9.5c-1.4,2.2-3.5,2.1-2.1-3.7c0.8-3.4,1-4.2,2.3-8.9
	c4.1-15.4-1.2-17.7-6.2-13.2c-1.5,1.4-3,3.5-4.3,5.8c0-0.1,0.1-0.1,0.1-0.2c2-7.7,0.1-9.8-3.6-9.2c-0.3,0.1-0.4,0.1-0.4,0.1
	s-0.3,3-2.5,12.1c-0.8,3-1.1,4.6-2.9,12.2c-2.2,9-0.7,10.2,2.5,10.5C355.1,52,355.4,52,355.4,52z"/>
<path fill-rule="evenodd" clip-rule="evenodd" fill="#FFFFFF" d="M394.7,20.6c-2.5-4.4-13.9-2.6-18,13.1c-4,15.2,2.5,19.4,9,16.8
	c4.6-1.9,7.3-5.7,10.2-12.3c0.6-1.4,0.9-2.5,0.9-2.9c0-1.2-0.4-0.8-1.5,1.5c-3.3,7.5-6.2,10.7-9.1,11.9c-3.1,1.3-6.9-3-3.8-14.8
	c3.4-12.8,9.3-16,11.2-12.9c1.5,2.6-0.6,5-3.7,4.5c-2.1-0.3-3.8,2.4-2.3,4.4c1.4,1.7,4.2,1.2,5.9-0.9
	C395.7,26.6,396.2,23.2,394.7,20.6z"/>
<path fill-rule="evenodd" clip-rule="evenodd" fill="#FFFFFF" d="M395.2,38.4c-3.3,13.4,3.9,15.1,7.7,8.8c2-3.2,2.7-4.7,4.5-9.1
	c0.6-1.4,0.9-2.5,0.9-2.9c0-1.2-0.5-0.8-1.5,1.5c-2,4.9-2.9,6.9-4.5,9.5c-1.4,2.2-3.6,2.1-2.2-3.7c1.9-7.6,4.5-17.2,4.7-17.7
	c0,0-0.4-0.3-1-0.7c-2-1.3-4.6-1.5-6.6,6.1C396.5,33.2,395.6,36.6,395.2,38.4L395.2,38.4z M407.7,18.9c1.1-1.7,0.1-3.9-2.1-4.6
	c-2.3-0.8-5-0.1-6,1.7c-1,1.7-0.1,3.8,2.2,4.6C403.9,21.3,406.6,20.7,407.7,18.9z"/>
<path fill-rule="evenodd" clip-rule="evenodd" fill="#FFFFFF" d="M406.9,33.5c-3.9,15.2,3.5,20.8,7.9,15.4c0.8-1,1.5-2.3,2.2-4.1
	c0.2,7.2,5.4,7.4,8.6,2.3c2-3.2,2.7-4.7,4.5-9.1c0.6-1.4,0.9-2.5,0.9-2.9c0-1.2-0.5-0.8-1.5,1.5c-2,4.9-2.9,6.9-4.5,9.5
	c-1.3,2.2-3.6,2.1-2.2-3.7c2.9-11.9,5.8-22.3,6.2-23.9c0,0-0.3-0.2-0.8-0.5c-1.9-1-3.7-1.5-5.3,1.7
	C419.4,16.4,410.7,18.7,406.9,33.5L406.9,33.5z M417.9,37.7c-1.2,5.1-2.5,8.6-3.7,10.1c-2.1,2.7-4.7-2.4-1.6-14
	c3.3-12.1,7.3-16.4,9.7-12.8c-0.4,1-0.8,2.1-1.1,3.5l-2.9,12C418.1,36.8,418,37.2,417.9,37.7z"/>
</svg>
