<?xml version="1.0" encoding="utf-8"?>
<!-- Generator: Adobe Illustrator 18.0.0, SVG Export Plug-In . SVG Version: 6.00 Build 0)  -->
<!DOCTYPE svg PUBLIC "-//W3C//DTD SVG 1.1//EN" "http://www.w3.org/Graphics/SVG/1.1/DTD/svg11.dtd">
<svg version="1.1" id="Capa_1" xmlns="http://www.w3.org/2000/svg" xmlns:xlink="http://www.w3.org/1999/xlink" x="0px" y="0px"
	 viewBox="0 0 125.7 191.3" enable-background="new 0 0 125.7 191.3" xml:space="preserve">
<g>
	<path fill="#FFFFFF" d="M63.1,191.3c-23.1,0-41.1-8.4-41.1-19.2s18.1-19.2,41.1-19.2s41.1,8.4,41.1,19.2S86.2,191.3,63.1,191.3z
		 M63.1,156.5c-22.4,0-37.4,8-37.4,15.5s15,15.5,37.4,15.5c22.4,0,37.4-8,37.4-15.5S85.5,156.5,63.1,156.5z"/>
	<path fill-rule="evenodd" clip-rule="evenodd" fill="#FFFFFF" d="M29.8,130.4c13.3,4,30.6,7.3,50.3,6.6l0,0
		c6.3-0.1,10.2-0.6,12.2-0.9l3.5-5.8l0,0l2.7-4.4l0,0l5.4-9l0.3-0.5c-3.3,1.1-6.7,2.2-10.3,3.2c-1.2,0.3-2.5,0.6-3.8,0.9l-0.1,0.1
		c-18.1,4.6-39.9,7.2-63.5,3.9l3.5,5.9l-0.1,0L29.8,130.4z"/>
	<path fill-rule="evenodd" clip-rule="evenodd" fill="#FFFFFF" d="M37.4,142.7L50,163.9c2.7,4.6,7.5,7.3,12.9,7.3
		c5.3,0,10.1-2.7,12.9-7.3l9.5-15.9C66.7,150.1,51.6,147.3,37.4,142.7z"/>
	<path fill-rule="evenodd" clip-rule="evenodd" fill="#FFFFFF" d="M4.8,87.1L4.8,87.1L4.8,87.1l0.1,0.1l0,0c0.2,0.4,0.3,0.7,0.5,1.1
		l0,0l0.1,0.1l0,0l0,0.1l0.1,0.1l0,0l0,0l0,0.1l0,0.1l0,0.1l0,0.1l0,0.1l0,0.1l0,0.1l0,0.1l0,0l0,0.1l0,0l0.1,0.1l0,0L6,89.8l0,0
		l0.1,0.1l0,0L6.1,90l0,0l0.1,0.1l0,0l0.1,0.1l0,0l0,0l0.1,0.1l0,0l0,0.1l0,0.1l0,0.1l0,0.1l0,0.1l0,0.1l0,0l0,0.1l0.1,0.1l0,0
		l0.1,0.1l0,0l0.1,0.1c0,0.1,0.1,0.2,0.2,0.3l14.9,24.9h0l0,0.1c4,0.5,8,0.9,11.9,1l0.3,0l0,0c26.5,0.9,49.5-7,67.2-16.5
		c6.4-3.1,11.6-5.7,16.8-8.8l0.5-0.8c0.1-0.1,0.1-0.2,0.2-0.3c0.7-1.3,1.3-2.6,1.9-4l0,0l0-0.1l0,0l0-0.1l0-0.1l0,0l0-0.1l0,0l0-0.1
		l0-0.1l0,0l0-0.1l0-0.1l0,0l0-0.1l0,0l0-0.1l0,0l0-0.1l0,0l0,0l0-0.1c0.1-0.2,0.1-0.3,0.2-0.5l0,0c0.2-0.6,0.4-1.1,0.6-1.7l0,0
		l0.1-0.2c-4.6,2.6-10.1,5.5-14.7,7.3l-0.2,0.3C56,113.8,19.7,94.9,2.9,82C3.5,83.7,4.1,85.4,4.8,87.1z"/>
	<path fill-rule="evenodd" clip-rule="evenodd" fill="#FFFFFF" d="M10.1,66.5c0,0.3,0,0.6,0.1,1C10.1,67.1,10.1,66.8,10.1,66.5
		L10.1,66.5z M10.1,67.5c0,0.4,0.1,0.8,0.1,1.2c20.5,13.8,49.6,25.5,91.2,19.2c1.3-0.2,5.9-1.4,9.3-2.5l0,0
		c5.7-2.2,10.2-4.4,12.7-5.7c1.5-5.4,2.3-11,2.3-16.8c0-0.2,0-0.4,0-0.6c-3.1,0.2-6.5,0.2-10-0.1c-48.1-3.6-32.2-35.6-81.2-25.6
		c-7.9,1.6-14.3,2.8-19.5,3.7c-4.8,0.8-8.6,1.4-11.6,1.9c-2.1,6-3.3,12.4-3.5,18.9c3.5,2.9,6.9,5.6,10.3,8c0-0.1,0-0.3,0-0.4
		C10.2,68.3,10.2,67.9,10.1,67.5z"/>
	<path fill-rule="evenodd" clip-rule="evenodd" fill="#FFFFFF" d="M62,0C45.5,0.2,30,6.9,18.3,18.6c-4.9,5-8.9,10.6-11.9,16.6
		l13-2.4C28.9,19.3,44.5,10.2,62.1,10c14.3-0.2,27.7,5.2,37.9,15.2c8.6,8.5,13.9,19.4,15.4,31.2c2.1,0.3,6.1,0.7,10.1,0.8
		c-1.3-14.8-7.8-28.5-18.5-39.1C94.9,6.2,78.9-0.2,62,0z"/>
</g>
</svg>
