<?xml version="1.0" encoding="utf-8"?>
<!-- Generator: Adobe Illustrator 18.0.0, SVG Export Plug-In . SVG Version: 6.00 Build 0)  -->
<!DOCTYPE svg PUBLIC "-//W3C//DTD SVG 1.1//EN" "http://www.w3.org/Graphics/SVG/1.1/DTD/svg11.dtd">
<svg version="1.1" id="Capa_1" xmlns="http://www.w3.org/2000/svg" xmlns:xlink="http://www.w3.org/1999/xlink" x="0px" y="0px"
	 viewBox="0 0 486.9 191.3" enable-background="new 0 0 486.9 191.3" xml:space="preserve">
<g>
	<g>
		<path fill="#FFFFFF" d="M63.1,191.3c-23.1,0-41.1-8.4-41.1-19.2s18.1-19.2,41.1-19.2s41.1,8.4,41.1,19.2S86.2,191.3,63.1,191.3z
			 M63.1,156.5c-22.4,0-37.4,8-37.4,15.5s15,15.5,37.4,15.5s37.4-8,37.4-15.5S85.5,156.5,63.1,156.5z"/>
		<path fill-rule="evenodd" clip-rule="evenodd" fill="#FFFFFF" d="M29.8,130.4c13.3,4,30.6,7.3,50.3,6.6l0,0
			c6.3-0.1,10.2-0.6,12.2-0.9l3.5-5.8l0,0l2.7-4.4l0,0l5.4-9l0.3-0.5c-3.3,1.1-6.7,2.2-10.3,3.2c-1.2,0.3-2.5,0.6-3.8,0.9l-0.1,0.1
			c-18.1,4.6-39.9,7.2-63.5,3.9l3.5,5.9l-0.1,0L29.8,130.4z"/>
		<path fill-rule="evenodd" clip-rule="evenodd" fill="#FFFFFF" d="M37.4,142.7L50,163.9c2.7,4.6,7.5,7.3,12.9,7.3
			c5.3,0,10.1-2.7,12.9-7.3l9.5-15.9C66.7,150.1,51.6,147.3,37.4,142.7z"/>
		<path fill-rule="evenodd" clip-rule="evenodd" fill="#FFFFFF" d="M4.8,87.1L4.8,87.1L4.8,87.1l0.1,0.1l0,0
			c0.2,0.4,0.3,0.7,0.5,1.1l0,0l0.1,0.1l0,0l0,0.1l0.1,0.1l0,0l0,0l0,0.1l0,0.1l0,0.1l0,0.1l0,0.1l0,0.1l0,0.1l0,0.1l0,0l0,0.1l0,0
			l0.1,0.1l0,0L6,89.8l0,0l0.1,0.1l0,0L6.1,90l0,0l0.1,0.1l0,0l0.1,0.1l0,0l0,0l0.1,0.1l0,0l0,0.1l0,0.1l0,0.1l0,0.1l0,0.1l0,0.1
			l0,0l0,0.1l0.1,0.1l0,0l0.1,0.1l0,0l0.1,0.1c0,0.1,0.1,0.2,0.2,0.3l14.9,24.9h0l0,0.1c4,0.5,8,0.9,11.9,1l0.3,0l0,0
			c26.5,0.9,49.5-7,67.2-16.5c6.4-3.1,11.6-5.7,16.8-8.8l0.5-0.8c0.1-0.1,0.1-0.2,0.2-0.3c0.7-1.3,1.3-2.6,1.9-4l0,0l0-0.1l0,0
			l0-0.1l0-0.1l0,0l0-0.1l0,0l0-0.1l0-0.1l0,0l0-0.1l0-0.1l0,0l0-0.1l0,0l0-0.1l0,0l0-0.1l0,0l0,0l0-0.1c0.1-0.2,0.1-0.3,0.2-0.5
			l0,0c0.2-0.6,0.4-1.1,0.6-1.7l0,0l0.1-0.2c-4.6,2.6-10.1,5.5-14.7,7.3l-0.2,0.3C56,113.8,19.7,94.9,2.9,82
			C3.5,83.7,4.1,85.4,4.8,87.1z"/>
		<path fill-rule="evenodd" clip-rule="evenodd" fill="#FFFFFF" d="M10.1,66.5c0,0.3,0,0.6,0.1,1C10.1,67.1,10.1,66.8,10.1,66.5
			L10.1,66.5z M10.1,67.5c0,0.4,0.1,0.8,0.1,1.2c20.5,13.8,49.6,25.5,91.2,19.2c1.3-0.2,5.9-1.4,9.3-2.5l0,0
			c5.7-2.2,10.2-4.4,12.7-5.7c1.5-5.4,2.3-11,2.3-16.8c0-0.2,0-0.4,0-0.6c-3.1,0.2-6.5,0.2-10-0.1c-48.1-3.6-32.2-35.6-81.2-25.6
			c-7.9,1.6-14.3,2.8-19.5,3.7c-4.8,0.8-8.6,1.4-11.6,1.9c-2.1,6-3.3,12.4-3.5,18.9c3.5,2.9,6.9,5.6,10.3,8c0-0.1,0-0.3,0-0.4
			C10.2,68.3,10.2,67.9,10.1,67.5z"/>
		<path fill-rule="evenodd" clip-rule="evenodd" fill="#FFFFFF" d="M62,0C45.5,0.2,30,6.9,18.3,18.6c-4.9,5-8.9,10.6-11.9,16.6
			l13-2.4C28.9,19.3,44.5,10.2,62.1,10c14.3-0.2,27.7,5.2,37.9,15.2c8.6,8.5,13.9,19.4,15.4,31.2c2.1,0.3,6.1,0.7,10.1,0.8
			c-1.3-14.8-7.8-28.5-18.5-39.1C94.9,6.2,78.9-0.2,62,0z"/>
	</g>
	<path fill-rule="evenodd" clip-rule="evenodd" fill="#FFFFFF" d="M147.9,148.8l12.2-0.1l-0.1-10.5l2.6,0l7,10.4l14-0.1l-8.6-12.4
		c4.4-2.2,7.2-5.9,7.1-11.2l0-0.1c0-3.8-1.2-6.5-3.4-8.7c-2.6-2.5-6.7-4.1-13.2-4.1l-17.9,0.1L147.9,148.8L147.9,148.8z M160,129.5
		l0-7.2l5.3,0c2.8,0,4.7,1.1,4.7,3.5l0,0.1c0,2.2-1.8,3.6-4.7,3.6L160,129.5z"/>
	<polygon fill-rule="evenodd" clip-rule="evenodd" fill="#FFFFFF" points="185.4,148.7 197.6,148.6 197.4,112.1 185.2,112.1 	"/>
	<path fill-rule="evenodd" clip-rule="evenodd" fill="#FFFFFF" d="M221,149.4c11.3-0.1,20-8.6,19.9-19.2l0-0.1
		c-0.1-10.6-8.7-18.9-20-18.9c-11.3,0.1-20,8.6-19.9,19.2l0,0.1C201,141.1,209.7,149.4,221,149.4L221,149.4z M221,138.6
		c-4.7,0-7.7-3.9-7.7-8.2l0-0.1c0-4.3,2.9-8.2,7.5-8.2c4.7,0,7.7,3.9,7.7,8.2l0,0.1C228.6,134.6,225.7,138.5,221,138.6z"/>
	<path fill-rule="evenodd" clip-rule="evenodd" fill="#FFFFFF" d="M275.8,149.3c9.1-0.1,14.2-4.5,17.2-10l-10.1-5.6
		c-1.5,2.7-3.4,4.6-6.9,4.6c-4,0-6.9-3.3-6.9-8.1l0-0.1c0-4.4,2.7-8,6.8-8c3.3,0,5.3,1.8,6.7,4.4l10.1-6c-3.1-5.6-8.6-9.5-16.6-9.4
		c-10.9,0.1-19.4,8.3-19.3,19.2l0,0.1C256.8,141.8,265.7,149.4,275.8,149.3z"/>
	<path fill-rule="evenodd" clip-rule="evenodd" fill="#FFFFFF" d="M313.1,149.2c10.9-0.1,18.2-5,18.1-17.5l-0.1-19.9l-12.4,0.1
		l0.1,20.3c0,4.4-2.3,6.2-5.6,6.3c-3.3,0-5.7-1.9-5.7-6.4l-0.1-20l-12.4,0.1l0.1,20.2C295.1,144.3,302.2,149.3,313.1,149.2z"/>
	<path fill-rule="evenodd" clip-rule="evenodd" fill="#FFFFFF" d="M331,148.6l13.1-0.1l1.9-4.9l12.8-0.1l2,4.9l13.3-0.1l-15.7-36.8
		l-12.1,0.1L331,148.6L331,148.6z M348.9,134.9l3.3-8.9l3.4,8.9L348.9,134.9z"/>
	<path fill-rule="evenodd" clip-rule="evenodd" fill="#FFFFFF" d="M375.5,148.5l12.2-0.1l-0.1-10.5l2.6,0l7,10.4l14-0.1l-8.6-12.4
		c4.4-2.2,7.2-5.9,7.1-11.2l0-0.1c0-3.8-1.2-6.5-3.4-8.7c-2.6-2.5-6.7-4.1-13.2-4.1l-17.9,0.1L375.5,148.5L375.5,148.5z
		 M387.6,129.3l0-7.2l5.3,0c2.8,0,4.7,1.1,4.7,3.5l0,0.1c0,2.2-1.8,3.6-4.7,3.6L387.6,129.3z"/>
	<polygon fill-rule="evenodd" clip-rule="evenodd" fill="#FFFFFF" points="422.2,148.5 434.4,148.4 434.3,122.1 445,122.1 
		445,111.7 411.2,111.9 411.3,122.3 422,122.2 	"/>
	<path fill-rule="evenodd" clip-rule="evenodd" fill="#FFFFFF" d="M465.5,149.1c11.3-0.1,20-8.6,19.9-19.2l0-0.1
		c-0.1-10.6-8.7-18.9-20-18.9c-11.3,0.1-20,8.6-19.9,19.2l0,0.1C445.5,140.9,454.2,149.2,465.5,149.1L465.5,149.1z M465.5,138.3
		c-4.7,0-7.7-3.9-7.7-8.2l0-0.1c0-4.3,2.9-8.2,7.5-8.2c4.7,0,7.7,3.9,7.7,8.2l0,0.1C473.1,134.4,470.2,138.3,465.5,138.3z"/>
	<path fill-rule="evenodd" clip-rule="evenodd" fill="#FFFFFF" d="M155.1,69.7c-1.3,6.1-4,14.9-5.2,19.4
		c-3.5,13.3,0.2,16.1,6.6,12.3c5.5-3.2,9.5-7,12.6-12c1.9-0.1,4-1.2,6.4-3.6c1.2-1.1,1.8-2,2-2.4c0.4-1.1-0.2-0.8-2,0.9
		c-2.4,2.3-4.3,3.6-5.8,3.9c1.8-3.1,3.2-6.6,4.4-10.7c4.3-15.1,2.6-23-4.2-20c-6.4,2.8-8.9,20-6.9,26.2c0.5,1.7,1.2,3,2.1,4
		c-2.4,6-5.3,10.6-8.7,12.4c-2.6,1.5-3.3-0.6-1.7-6.9c1.7-6.2,3.8-14.6,7-26.4c2-7.5,0.8-10-3.7-9.3c-0.3,0.1-0.4,0.1-0.4,0.1
		S157.2,60.5,155.1,69.7L155.1,69.7z M164.2,83.3c-1.8-5.2,1-22.5,5.4-24.3c3.1-1.2,3.3,5.4-2.4,22.7c-0.5,1.6-1.1,3.2-1.7,4.6
		C165.1,85.6,164.6,84.6,164.2,83.3z"/>
	<path fill-rule="evenodd" clip-rule="evenodd" fill="#FFFFFF" d="M174.7,89.1c-3.3,13.4,3.9,15.1,7.7,8.8c2-3.2,2.7-4.7,4.5-9.1
		c0.6-1.4,0.9-2.5,0.9-2.9c0-1.2-0.5-0.8-1.5,1.5c-2,4.9-2.9,6.9-4.5,9.5c-1.4,2.2-3.6,2.1-2.2-3.7c1.9-7.6,4.5-17.2,4.7-17.7
		c0,0-0.4-0.3-1-0.7c-2-1.3-4.6-1.5-6.6,6.1C175.9,83.9,175.1,87.4,174.7,89.1L174.7,89.1z M187.2,69.6c1.1-1.7,0.1-3.9-2.1-4.6
		c-2.3-0.8-5-0.1-6,1.7c-1,1.7-0.1,3.8,2.2,4.6C183.4,72,186.1,71.4,187.2,69.6z"/>
	<path fill-rule="evenodd" clip-rule="evenodd" fill="#FFFFFF" d="M208,77.3c1.9-7.2,0-10.7-5.1-9.4c-5.1,1.2-8,10.4-5.2,15.6
		c0.5,1,1.1,1.8,1.9,2.4c-2.5,6.7-4.5,10.1-6.7,11.7c-2.1,1.5-3,1-1.6-4.7c2.9-11.8,5.8-22.3,6.2-23.9c0,0-0.3-0.2-0.8-0.5
		c-2.5-1.4-4.8-1.9-6.9,6.5c-1.2,4.8-2.6,10.8-3.4,13.8c-3.3,13.4,0.7,14.5,6.6,10c3.9-2.9,7.6-6.5,10.5-11.1
		c1.9,0.2,4.1-0.5,5.9-2.2c1.2-1.1,1.8-2.1,2-2.4c0.4-1.1-0.2-0.8-2,0.9c-1.9,1.8-3.7,2.6-5.3,2.6C205.8,83.9,207.1,80.8,208,77.3
		L208,77.3z M198.9,83c-2.4-4.4,0.6-13,3.6-13.6c1.7-0.4,1.7,3-1.3,12.2l-1.1,3.2C199.7,84.2,199.2,83.6,198.9,83z"/>
	<path fill-rule="evenodd" clip-rule="evenodd" fill="#FFFFFF" d="M208.3,88.8c-3.3,13.4,3.9,15.1,7.7,8.8c2-3.2,2.7-4.7,4.5-9.1
		c0.6-1.4,0.9-2.5,0.9-2.9c0-1.2-0.5-0.8-1.5,1.5c-2,4.9-2.9,6.9-4.5,9.5c-1.4,2.2-3.6,2.1-2.2-3.7c1.9-7.6,4.5-17.2,4.7-17.7
		c0,0-0.4-0.3-1-0.7c-2-1.3-4.6-1.5-6.6,6.1C209.6,83.6,208.8,87.1,208.3,88.8L208.3,88.8z M211.6,71.9c0,0,4.6-1.6,7-2.5
		c1.9-0.7,2.8-2.4,1.9-4.1c-0.8-1.5-2.9-1.6-4.8,0.7l-4.4,5.2L211.6,71.9z"/>
	<path fill-rule="evenodd" clip-rule="evenodd" fill="#FFFFFF" d="M228.8,88.7c-3.3,13.4,3.9,15.1,7.7,8.8c2-3.2,2.7-4.7,4.5-9.1
		c0.6-1.4,0.9-2.5,0.9-2.9c0-1.2-0.5-0.8-1.5,1.5c-2,4.9-2.9,6.9-4.5,9.5c-1.4,2.2-3.6,2.1-2.2-3.7c1.5-5.9,6.4-25.3,6.8-26.7
		c1.9-7.3,0.7-10-3.7-9.3c-0.3,0.1-0.5,0.1-0.5,0.1s-0.3,3-2.5,12.1C232.5,74.5,230.2,82.7,228.8,88.7z"/>
	<path fill-rule="evenodd" clip-rule="evenodd" fill="#FFFFFF" d="M240.5,83.8c-3.9,15.2,3.5,20.8,7.9,15.4c0.8-1,1.5-2.3,2.2-4.1
		c0.2,7.2,5.4,7.4,8.6,2.3c2-3.2,2.7-4.7,4.5-9.1c0.6-1.4,0.9-2.5,0.9-2.9c0-1.2-0.5-0.8-1.5,1.5c-2,4.9-2.9,6.9-4.5,9.5
		c-1.3,2.2-3.6,2.1-2.2-3.7c2.9-11.9,5.8-22.3,6.2-23.9c0,0-0.3-0.2-0.8-0.5c-1.9-1-3.7-1.5-5.3,1.7C253,66.8,244.3,69,240.5,83.8
		L240.5,83.8z M251.5,88c-1.2,5.1-2.5,8.6-3.7,10.1c-2.1,2.7-4.7-2.4-1.6-14c3.3-12.1,7.3-16.4,9.7-12.8c-0.4,1-0.8,2.1-1.1,3.5
		l-2.9,12C251.7,87.2,251.6,87.5,251.5,88z"/>
	<path fill-rule="evenodd" clip-rule="evenodd" fill="#FFFFFF" d="M292.6,70.4c-2.5-4.4-15.8-2.6-19.9,13.1
		c-3.9,15.1,3.5,20.4,11.2,16.9c4.6-2.1,7-5.8,9.9-12.4c0.6-1.4,0.9-2.5,0.9-2.9c0-1.2-0.4-0.8-1.5,1.6c-3.3,7.5-6,10.6-8.9,12
		c-3.6,1.7-7.3-1.4-7-8.7C286,84.6,295.1,74.9,292.6,70.4L292.6,70.4z M278.4,83.8c3.4-12.8,7.7-16.2,9.2-12.9
		c1.3,2.9-2,12.1-10.1,17.4C277.7,86.9,278,85.5,278.4,83.8z"/>
	<path fill-rule="evenodd" clip-rule="evenodd" fill="#FFFFFF" d="M318.6,86.5c-2,4.9-2.9,6.9-4.5,9.5c-1.7,2.7-2.6,3-3.4-0.2
		c-0.7-2.6-1.4-5.9-2.2-9.3c4.6-3.7,7.9-9,9.2-13.9c1.9-7-4.8-5.8-4.8-5.7c-0.4,6.8-2,12.7-5,16.7c-0.7-3.2-1.3-6.3-1.9-8.9
		c-2.4-10.6-8.8-10.9-11.2-4.6c-2.5,6.6-1.2,18,1.7,22.6l0.1,0.3c-0.9,0.9-1.6,1.9-2.2,3.1c-1.3,2.8-0.4,5.5,2.7,5.5l0.6,0
		c0-0.3,0.1-0.9,0.3-1.8c0.6-4.1,2.8-7,5.8-9.5l1.7,6.7c1.5,5.9,5.6,6.3,9.3,0.2c2-3.2,2.7-4.7,4.5-9.1c0.6-1.4,0.9-2.5,0.9-2.9
		C320.1,83.7,319.5,84.2,318.6,86.5L318.6,86.5z M297.4,92c-3.5-6.3-3.8-16.3-2-21c1-2.5,3.5-3,5,4.8c0.6,3,1.7,7.6,2.8,12
		C301.1,89.2,299,90.5,297.4,92z"/>
	<path fill-rule="evenodd" clip-rule="evenodd" fill="#FFFFFF" d="M317.9,110.6l2.8-11.3c3.4,3,11.9,0.6,15.7-13.9
		c3.9-15.2-3-20.8-7.3-15.4c-0.5,0.6-1.1,1.5-1.7,2.4c0.8-5.1-1.2-6.6-4.3-6.2c-0.3,0.1-0.4,0.1-0.4,0.1s-0.2,3-2.5,12.1
		c-0.8,3-3.5,14-5.3,21.5c-2.2,9.1-0.7,10.2,2.5,10.5C317.6,110.6,317.9,110.6,317.9,110.6L317.9,110.6z M325.3,81.2l0.2-0.9
		c0.1-0.2,0.1-0.4,0.1-0.6c1.2-4.3,2.9-7.3,3.9-8.6c2.1-2.7,4.2,2.4,1.1,14c-3.3,12-7.3,16.3-9.6,12.8c1.5-5.9,3.1-12,3.8-15.2
		L325.3,81.2z"/>
	<path fill-rule="evenodd" clip-rule="evenodd" fill="#FFFFFF" d="M358.6,69.9c-2.5-4.4-15.8-2.6-19.9,13.1
		c-3.9,15.1,3.5,20.4,11.2,16.9c4.6-2.1,7-5.8,9.9-12.4c0.6-1.4,0.9-2.5,0.9-2.9c0-1.2-0.4-0.8-1.5,1.6c-3.3,7.5-6,10.6-8.9,12
		c-3.6,1.7-7.3-1.4-7-8.7C352,84.1,361.1,74.4,358.6,69.9L358.6,69.9z M344.4,83.3c3.4-12.8,7.7-16.2,9.2-12.9
		c1.3,2.9-2,12.1-10.1,17.4C343.7,86.4,344,85,344.4,83.3z"/>
	<path fill-rule="evenodd" clip-rule="evenodd" fill="#FFFFFF" d="M366.8,72.3c1.6,0.6,1.5,1.9,1,3.9l-2.5,11.5
		c-3.3,13.4,3.9,15.1,7.7,8.8c2-3.2,2.7-4.7,4.5-9.1c0.6-1.4,0.9-2.5,0.9-2.9c0-1.2-0.5-0.8-1.5,1.6c-2,4.9-2.9,6.9-4.5,9.5
		c-1.4,2.2-3.6,2.1-2.2-3.7l4.8-19.9c0.3-1.2-0.1-1.4-9.5-4.1c0.4-2.1,0.9-3.4,0.9-3.4s-3.7-0.5-5.5,2.5c-1,1.6-0.7,2.7,2.3,4
		c-1.1,5.8-3.1,12.9-4.8,17.2c-0.9,2.4-0.8,3-0.1,2.2c0.3-0.3,0.8-1.3,1.4-2.8c1.5-3.7,3.7-10.1,5-15.9
		C365.4,71.9,366.2,72.1,366.8,72.3z"/>
	<path fill-rule="evenodd" clip-rule="evenodd" fill="#FFFFFF" d="M376.7,87.5c-3.3,13.4,3.9,15.1,7.7,8.8c2-3.2,2.7-4.7,4.5-9.1
		c0.6-1.4,0.9-2.5,0.9-2.9c0-1.2-0.5-0.8-1.5,1.5c-2,4.9-2.9,6.9-4.5,9.5c-1.4,2.2-3.6,2.1-2.2-3.7c1.9-7.6,4.5-17.2,4.7-17.7
		c0,0-0.4-0.3-1-0.7c-2-1.3-4.6-1.5-6.6,6.1C378,82.3,377.2,85.8,376.7,87.5L376.7,87.5z M389.2,68.1c1.1-1.7,0.1-3.9-2.1-4.6
		c-2.3-0.8-5-0.1-6,1.7c-1,1.7-0.1,3.8,2.2,4.6C385.5,70.5,388.2,69.8,389.2,68.1z"/>
	<path fill-rule="evenodd" clip-rule="evenodd" fill="#FFFFFF" d="M408.4,69.5c-2.5-4.4-15.8-2.6-19.9,13.1
		c-3.9,15.1,3.5,20.4,11.2,16.9c4.6-2.1,7-5.8,9.9-12.4c0.6-1.4,0.9-2.5,0.9-2.9c0-1.2-0.4-0.8-1.5,1.6c-3.3,7.5-6,10.6-8.9,12
		c-3.6,1.7-7.3-1.4-7-8.7C401.7,83.7,410.8,74,408.4,69.5L408.4,69.5z M394.2,82.9c3.4-12.8,7.7-16.2,9.2-12.9
		c1.3,2.9-2,12.1-10.1,17.4C393.4,86,393.7,84.6,394.2,82.9z"/>
	<path fill-rule="evenodd" clip-rule="evenodd" fill="#FFFFFF" d="M411.4,100.5c0.3-1.1,2.2-8.9,3.6-14.7l0.4-1.4l0.4-1.6
		c1.6-5.6,4.1-10,6.6-12.4c2.4-2.3,3.2,0.4,0.1,11.7l-1.5,5.9c-3.2,13.4,3.8,14.4,7.7,8.1c2-3.2,2.7-4.7,4.5-9.1
		c0.6-1.4,0.9-2.5,0.9-2.9c0-1.2-0.5-0.8-1.5,1.6c-2,4.9-2.9,6.9-4.5,9.5c-1.4,2.2-3.5,2.1-2.1-3.7c0.8-3.4,1-4.2,2.3-8.9
		c4.1-15.4-1.2-17.7-6.2-13.2c-1.5,1.4-3,3.5-4.3,5.8c0-0.1,0.1-0.1,0.1-0.2c2-7.7,0.1-9.8-3.6-9.2c-0.3,0.1-0.4,0.1-0.4,0.1
		s-0.3,3-2.5,12.1c-0.8,3-1.1,4.6-2.9,12.2c-2.2,9-0.7,10.2,2.5,10.5C411.2,100.5,411.4,100.5,411.4,100.5z"/>
	<path fill-rule="evenodd" clip-rule="evenodd" fill="#FFFFFF" d="M450.8,69.2c-2.5-4.4-13.9-2.6-18,13.1c-4,15.2,2.5,19.4,9,16.8
		c4.6-1.9,7.3-5.7,10.2-12.3c0.6-1.4,0.9-2.5,0.9-2.9c0-1.2-0.4-0.8-1.5,1.5c-3.3,7.5-6.2,10.7-9.1,11.9c-3.1,1.3-6.9-3-3.8-14.8
		c3.4-12.8,9.3-16,11.2-12.9c1.5,2.6-0.6,5-3.7,4.5c-2.1-0.3-3.8,2.4-2.3,4.4c1.4,1.7,4.2,1.2,5.9-0.9
		C451.7,75.2,452.3,71.8,450.8,69.2z"/>
	<path fill-rule="evenodd" clip-rule="evenodd" fill="#FFFFFF" d="M451.2,87c-3.3,13.4,3.9,15.1,7.7,8.8c2-3.2,2.7-4.7,4.5-9.1
		c0.6-1.4,0.9-2.5,0.9-2.9c0-1.2-0.5-0.8-1.5,1.5c-2,4.9-2.9,6.9-4.5,9.5c-1.4,2.2-3.6,2.1-2.2-3.7c1.9-7.6,4.5-17.2,4.7-17.7
		c0,0-0.4-0.3-1-0.7c-2-1.3-4.6-1.5-6.6,6.1C452.5,81.7,451.7,85.2,451.2,87L451.2,87z M463.7,67.5c1.1-1.7,0.1-3.9-2.1-4.6
		c-2.3-0.8-5-0.1-6,1.7c-1,1.7-0.1,3.8,2.2,4.6C460,69.9,462.7,69.2,463.7,67.5z"/>
	<path fill-rule="evenodd" clip-rule="evenodd" fill="#FFFFFF" d="M462.9,82.1c-3.9,15.2,3.5,20.8,7.9,15.4c0.8-1,1.5-2.3,2.2-4.1
		c0.2,7.2,5.4,7.4,8.6,2.3c2-3.2,2.7-4.7,4.5-9.1c0.6-1.4,0.9-2.5,0.9-2.9c0-1.2-0.5-0.8-1.5,1.5c-2,4.9-2.9,6.9-4.5,9.5
		c-1.3,2.2-3.6,2.1-2.2-3.7c2.9-11.9,5.8-22.3,6.2-23.9c0,0-0.3-0.2-0.8-0.5c-1.9-1-3.7-1.5-5.3,1.7C475.5,65,466.8,67.3,462.9,82.1
		L462.9,82.1z M474,86.3c-1.2,5.1-2.5,8.6-3.7,10.1c-2.1,2.7-4.7-2.4-1.6-14c3.3-12.1,7.3-16.4,9.7-12.8c-0.4,1-0.8,2.1-1.1,3.5
		l-2.9,12C474.1,85.4,474.1,85.8,474,86.3z"/>
	<path fill-rule="evenodd" clip-rule="evenodd" fill="#FFFFFF" d="M155.1,69.7c-1.3,6.1-4,14.9-5.2,19.4
		c-3.5,13.3,0.2,16.1,6.6,12.3c5.5-3.2,9.5-7,12.6-12c1.9-0.1,4-1.2,6.4-3.6c1.2-1.1,1.8-2,2-2.4c0.4-1.1-0.2-0.8-2,0.9
		c-2.4,2.3-4.3,3.6-5.8,3.9c1.8-3.1,3.2-6.6,4.4-10.7c4.3-15.1,2.6-23-4.2-20c-6.4,2.8-8.9,20-6.9,26.2c0.5,1.7,1.2,3,2.1,4
		c-2.4,6-5.3,10.6-8.7,12.4c-2.6,1.5-3.3-0.6-1.7-6.9c1.7-6.2,3.8-14.6,7-26.4c2-7.5,0.8-10-3.7-9.3c-0.3,0.1-0.4,0.1-0.4,0.1
		S157.2,60.5,155.1,69.7L155.1,69.7z M164.2,83.3c-1.8-5.2,1-22.5,5.4-24.3c3.1-1.2,3.3,5.4-2.4,22.7c-0.5,1.6-1.1,3.2-1.7,4.6
		C165.1,85.6,164.6,84.6,164.2,83.3z"/>
	<path fill-rule="evenodd" clip-rule="evenodd" fill="#FFFFFF" d="M174.7,89.1c-3.3,13.4,3.9,15.1,7.7,8.8c2-3.2,2.7-4.7,4.5-9.1
		c0.6-1.4,0.9-2.5,0.9-2.9c0-1.2-0.5-0.8-1.5,1.5c-2,4.9-2.9,6.9-4.5,9.5c-1.4,2.2-3.6,2.1-2.2-3.7c1.9-7.6,4.5-17.2,4.7-17.7
		c0,0-0.4-0.3-1-0.7c-2-1.3-4.6-1.5-6.6,6.1C175.9,83.9,175.1,87.4,174.7,89.1L174.7,89.1z M187.2,69.6c1.1-1.7,0.1-3.9-2.1-4.6
		c-2.3-0.8-5-0.1-6,1.7c-1,1.7-0.1,3.8,2.2,4.6C183.4,72,186.1,71.4,187.2,69.6z"/>
	<path fill-rule="evenodd" clip-rule="evenodd" fill="#FFFFFF" d="M208,77.3c1.9-7.2,0-10.7-5.1-9.4c-5.1,1.2-8,10.4-5.2,15.6
		c0.5,1,1.1,1.8,1.9,2.4c-2.5,6.7-4.5,10.1-6.7,11.7c-2.1,1.5-3,1-1.6-4.7c2.9-11.8,5.8-22.3,6.2-23.9c0,0-0.3-0.2-0.8-0.5
		c-2.5-1.4-4.8-1.9-6.9,6.5c-1.2,4.8-2.6,10.8-3.4,13.8c-3.3,13.4,0.7,14.5,6.6,10c3.9-2.9,7.6-6.5,10.5-11.1
		c1.9,0.2,4.1-0.5,5.9-2.2c1.2-1.1,1.8-2.1,2-2.4c0.4-1.1-0.2-0.8-2,0.9c-1.9,1.8-3.7,2.6-5.3,2.6C205.8,83.9,207.1,80.8,208,77.3
		L208,77.3z M198.9,83c-2.4-4.4,0.6-13,3.6-13.6c1.7-0.4,1.7,3-1.3,12.2l-1.1,3.2C199.7,84.2,199.2,83.6,198.9,83z"/>
	<path fill-rule="evenodd" clip-rule="evenodd" fill="#FFFFFF" d="M208.3,88.8c-3.3,13.4,3.9,15.1,7.7,8.8c2-3.2,2.7-4.7,4.5-9.1
		c0.6-1.4,0.9-2.5,0.9-2.9c0-1.2-0.5-0.8-1.5,1.5c-2,4.9-2.9,6.9-4.5,9.5c-1.4,2.2-3.6,2.1-2.2-3.7c1.9-7.6,4.5-17.2,4.7-17.7
		c0,0-0.4-0.3-1-0.7c-2-1.3-4.6-1.5-6.6,6.1C209.6,83.6,208.8,87.1,208.3,88.8L208.3,88.8z M211.6,71.9c0,0,4.6-1.6,7-2.5
		c1.9-0.7,2.8-2.4,1.9-4.1c-0.8-1.5-2.9-1.6-4.8,0.7l-4.4,5.2L211.6,71.9z"/>
	<path fill-rule="evenodd" clip-rule="evenodd" fill="#FFFFFF" d="M228.8,88.7c-3.3,13.4,3.9,15.1,7.7,8.8c2-3.2,2.7-4.7,4.5-9.1
		c0.6-1.4,0.9-2.5,0.9-2.9c0-1.2-0.5-0.8-1.5,1.5c-2,4.9-2.9,6.9-4.5,9.5c-1.4,2.2-3.6,2.1-2.2-3.7c1.5-5.9,6.4-25.3,6.8-26.7
		c1.9-7.3,0.7-10-3.7-9.3c-0.3,0.1-0.5,0.1-0.5,0.1s-0.3,3-2.5,12.1C232.5,74.5,230.2,82.7,228.8,88.7z"/>
	<path fill-rule="evenodd" clip-rule="evenodd" fill="#FFFFFF" d="M240.5,83.8c-3.9,15.2,3.5,20.8,7.9,15.4c0.8-1,1.5-2.3,2.2-4.1
		c0.2,7.2,5.4,7.4,8.6,2.3c2-3.2,2.7-4.7,4.5-9.1c0.6-1.4,0.9-2.5,0.9-2.9c0-1.2-0.5-0.8-1.5,1.5c-2,4.9-2.9,6.9-4.5,9.5
		c-1.3,2.2-3.6,2.1-2.2-3.7c2.9-11.9,5.8-22.3,6.2-23.9c0,0-0.3-0.2-0.8-0.5c-1.9-1-3.7-1.5-5.3,1.7C253,66.8,244.3,69,240.5,83.8
		L240.5,83.8z M251.5,88c-1.2,5.1-2.5,8.6-3.7,10.1c-2.1,2.7-4.7-2.4-1.6-14c3.3-12.1,7.3-16.4,9.7-12.8c-0.4,1-0.8,2.1-1.1,3.5
		l-2.9,12C251.7,87.2,251.6,87.5,251.5,88z"/>
	<path fill-rule="evenodd" clip-rule="evenodd" fill="#FFFFFF" d="M292.6,70.4c-2.5-4.4-15.8-2.6-19.9,13.1
		c-3.9,15.1,3.5,20.4,11.2,16.9c4.6-2.1,7-5.8,9.9-12.4c0.6-1.4,0.9-2.5,0.9-2.9c0-1.2-0.4-0.8-1.5,1.6c-3.3,7.5-6,10.6-8.9,12
		c-3.6,1.7-7.3-1.4-7-8.7C286,84.6,295.1,74.9,292.6,70.4L292.6,70.4z M278.4,83.8c3.4-12.8,7.7-16.2,9.2-12.9
		c1.3,2.9-2,12.1-10.1,17.4C277.7,86.9,278,85.5,278.4,83.8z"/>
	<path fill-rule="evenodd" clip-rule="evenodd" fill="#FFFFFF" d="M318.6,86.5c-2,4.9-2.9,6.9-4.5,9.5c-1.7,2.7-2.6,3-3.4-0.2
		c-0.7-2.6-1.4-5.9-2.2-9.3c4.6-3.7,7.9-9,9.2-13.9c1.9-7-4.8-5.8-4.8-5.7c-0.4,6.8-2,12.7-5,16.7c-0.7-3.2-1.3-6.3-1.9-8.9
		c-2.4-10.6-8.8-10.9-11.2-4.6c-2.5,6.6-1.2,18,1.7,22.6l0.1,0.3c-0.9,0.9-1.6,1.9-2.2,3.1c-1.3,2.8-0.4,5.5,2.7,5.5l0.6,0
		c0-0.3,0.1-0.9,0.3-1.8c0.6-4.1,2.8-7,5.8-9.5l1.7,6.7c1.5,5.9,5.6,6.3,9.3,0.2c2-3.2,2.7-4.7,4.5-9.1c0.6-1.4,0.9-2.5,0.9-2.9
		C320.1,83.7,319.5,84.2,318.6,86.5L318.6,86.5z M297.4,92c-3.5-6.3-3.8-16.3-2-21c1-2.5,3.5-3,5,4.8c0.6,3,1.7,7.6,2.8,12
		C301.1,89.2,299,90.5,297.4,92z"/>
	<path fill-rule="evenodd" clip-rule="evenodd" fill="#FFFFFF" d="M317.9,110.6l2.8-11.3c3.4,3,11.9,0.6,15.7-13.9
		c3.9-15.2-3-20.8-7.3-15.4c-0.5,0.6-1.1,1.5-1.7,2.4c0.8-5.1-1.2-6.6-4.3-6.2c-0.3,0.1-0.4,0.1-0.4,0.1s-0.2,3-2.5,12.1
		c-0.8,3-3.5,14-5.3,21.5c-2.2,9.1-0.7,10.2,2.5,10.5C317.6,110.6,317.9,110.6,317.9,110.6L317.9,110.6z M325.3,81.2l0.2-0.9
		c0.1-0.2,0.1-0.4,0.1-0.6c1.2-4.3,2.9-7.3,3.9-8.6c2.1-2.7,4.2,2.4,1.1,14c-3.3,12-7.3,16.3-9.6,12.8c1.5-5.9,3.1-12,3.8-15.2
		L325.3,81.2z"/>
	<path fill-rule="evenodd" clip-rule="evenodd" fill="#FFFFFF" d="M358.6,69.9c-2.5-4.4-15.8-2.6-19.9,13.1
		c-3.9,15.1,3.5,20.4,11.2,16.9c4.6-2.1,7-5.8,9.9-12.4c0.6-1.4,0.9-2.5,0.9-2.9c0-1.2-0.4-0.8-1.5,1.6c-3.3,7.5-6,10.6-8.9,12
		c-3.6,1.7-7.3-1.4-7-8.7C352,84.1,361.1,74.4,358.6,69.9L358.6,69.9z M344.4,83.3c3.4-12.8,7.7-16.2,9.2-12.9
		c1.3,2.9-2,12.1-10.1,17.4C343.7,86.4,344,85,344.4,83.3z"/>
	<path fill-rule="evenodd" clip-rule="evenodd" fill="#FFFFFF" d="M366.8,72.3c1.6,0.6,1.5,1.9,1,3.9l-2.5,11.5
		c-3.3,13.4,3.9,15.1,7.7,8.8c2-3.2,2.7-4.7,4.5-9.1c0.6-1.4,0.9-2.5,0.9-2.9c0-1.2-0.5-0.8-1.5,1.6c-2,4.9-2.9,6.9-4.5,9.5
		c-1.4,2.2-3.6,2.1-2.2-3.7l4.8-19.9c0.3-1.2-0.1-1.4-9.5-4.1c0.4-2.1,0.9-3.4,0.9-3.4s-3.7-0.5-5.5,2.5c-1,1.6-0.7,2.7,2.3,4
		c-1.1,5.8-3.1,12.9-4.8,17.2c-0.9,2.4-0.8,3-0.1,2.2c0.3-0.3,0.8-1.3,1.4-2.8c1.5-3.7,3.7-10.1,5-15.9
		C365.4,71.9,366.2,72.1,366.8,72.3z"/>
	<path fill-rule="evenodd" clip-rule="evenodd" fill="#FFFFFF" d="M376.7,87.5c-3.3,13.4,3.9,15.1,7.7,8.8c2-3.2,2.7-4.7,4.5-9.1
		c0.6-1.4,0.9-2.5,0.9-2.9c0-1.2-0.5-0.8-1.5,1.5c-2,4.9-2.9,6.9-4.5,9.5c-1.4,2.2-3.6,2.1-2.2-3.7c1.9-7.6,4.5-17.2,4.7-17.7
		c0,0-0.4-0.3-1-0.7c-2-1.3-4.6-1.5-6.6,6.1C378,82.3,377.2,85.8,376.7,87.5L376.7,87.5z M389.2,68.1c1.1-1.7,0.1-3.9-2.1-4.6
		c-2.3-0.8-5-0.1-6,1.7c-1,1.7-0.1,3.8,2.2,4.6C385.5,70.5,388.2,69.8,389.2,68.1z"/>
	<path fill-rule="evenodd" clip-rule="evenodd" fill="#FFFFFF" d="M408.4,69.5c-2.5-4.4-15.8-2.6-19.9,13.1
		c-3.9,15.1,3.5,20.4,11.2,16.9c4.6-2.1,7-5.8,9.9-12.4c0.6-1.4,0.9-2.5,0.9-2.9c0-1.2-0.4-0.8-1.5,1.6c-3.3,7.5-6,10.6-8.9,12
		c-3.6,1.7-7.3-1.4-7-8.7C401.7,83.7,410.8,74,408.4,69.5L408.4,69.5z M394.2,82.9c3.4-12.8,7.7-16.2,9.2-12.9
		c1.3,2.9-2,12.1-10.1,17.4C393.4,86,393.7,84.6,394.2,82.9z"/>
	<path fill-rule="evenodd" clip-rule="evenodd" fill="#FFFFFF" d="M411.4,100.5c0.3-1.1,2.2-8.9,3.6-14.7l0.4-1.4l0.4-1.6
		c1.6-5.6,4.1-10,6.6-12.4c2.4-2.3,3.2,0.4,0.1,11.7l-1.5,5.9c-3.2,13.4,3.8,14.4,7.7,8.1c2-3.2,2.7-4.7,4.5-9.1
		c0.6-1.4,0.9-2.5,0.9-2.9c0-1.2-0.5-0.8-1.5,1.6c-2,4.9-2.9,6.9-4.5,9.5c-1.4,2.2-3.5,2.1-2.1-3.7c0.8-3.4,1-4.2,2.3-8.9
		c4.1-15.4-1.2-17.7-6.2-13.2c-1.5,1.4-3,3.5-4.3,5.8c0-0.1,0.1-0.1,0.1-0.2c2-7.7,0.1-9.8-3.6-9.2c-0.3,0.1-0.4,0.1-0.4,0.1
		s-0.3,3-2.5,12.1c-0.8,3-1.1,4.6-2.9,12.2c-2.2,9-0.7,10.2,2.5,10.5C411.2,100.5,411.4,100.5,411.4,100.5z"/>
	<path fill-rule="evenodd" clip-rule="evenodd" fill="#FFFFFF" d="M450.8,69.2c-2.5-4.4-13.9-2.6-18,13.1c-4,15.2,2.5,19.4,9,16.8
		c4.6-1.9,7.3-5.7,10.2-12.3c0.6-1.4,0.9-2.5,0.9-2.9c0-1.2-0.4-0.8-1.5,1.5c-3.3,7.5-6.2,10.7-9.1,11.9c-3.1,1.3-6.9-3-3.8-14.8
		c3.4-12.8,9.3-16,11.2-12.9c1.5,2.6-0.6,5-3.7,4.5c-2.1-0.3-3.8,2.4-2.3,4.4c1.4,1.7,4.2,1.2,5.9-0.9
		C451.7,75.2,452.3,71.8,450.8,69.2z"/>
	<path fill-rule="evenodd" clip-rule="evenodd" fill="#FFFFFF" d="M451.2,87c-3.3,13.4,3.9,15.1,7.7,8.8c2-3.2,2.7-4.7,4.5-9.1
		c0.6-1.4,0.9-2.5,0.9-2.9c0-1.2-0.5-0.8-1.5,1.5c-2,4.9-2.9,6.9-4.5,9.5c-1.4,2.2-3.6,2.1-2.2-3.7c1.9-7.6,4.5-17.2,4.7-17.7
		c0,0-0.4-0.3-1-0.7c-2-1.3-4.6-1.5-6.6,6.1C452.5,81.7,451.7,85.2,451.2,87L451.2,87z M463.7,67.5c1.1-1.7,0.1-3.9-2.1-4.6
		c-2.3-0.8-5-0.1-6,1.7c-1,1.7-0.1,3.8,2.2,4.6C460,69.9,462.7,69.2,463.7,67.5z"/>
	<path fill-rule="evenodd" clip-rule="evenodd" fill="#FFFFFF" d="M462.9,82.1c-3.9,15.2,3.5,20.8,7.9,15.4c0.8-1,1.5-2.3,2.2-4.1
		c0.2,7.2,5.4,7.4,8.6,2.3c2-3.2,2.7-4.7,4.5-9.1c0.6-1.4,0.9-2.5,0.9-2.9c0-1.2-0.5-0.8-1.5,1.5c-2,4.9-2.9,6.9-4.5,9.5
		c-1.3,2.2-3.6,2.1-2.2-3.7c2.9-11.9,5.8-22.3,6.2-23.9c0,0-0.3-0.2-0.8-0.5c-1.9-1-3.7-1.5-5.3,1.7C475.5,65,466.8,67.3,462.9,82.1
		L462.9,82.1z M474,86.3c-1.2,5.1-2.5,8.6-3.7,10.1c-2.1,2.7-4.7-2.4-1.6-14c3.3-12.1,7.3-16.4,9.7-12.8c-0.4,1-0.8,2.1-1.1,3.5
		l-2.9,12C474.1,85.4,474.1,85.8,474,86.3z"/>
</g>
</svg>
